<svg height="726.02215" viewBox="0 0 1038 726.02215" width="1038" xmlns="http://www.w3.org/2000/svg"><path d="m234.46917 695.55273-1.2865-.4823c-.28271-.10652-28.41966-10.88673-41.60022-35.33038-13.18114-24.44482-6.72695-53.87647-6.66022-54.1703l.30378-1.34035 1.28592.48229c.2827.10653 28.41906 10.88674 41.60021 35.33039 13.18114 24.44482 6.72695 53.87647 6.66022 54.17029zm-40.77609-36.95052c11.14368 20.66724 33.37838 31.26132 39.012 33.67981 1.07112-6.038 4.4302-30.45476-6.70353-51.1021-11.13257-20.645-33.376-31.25547-39.012-33.67982-1.07171 6.04155-4.42962 30.4559 6.70353 51.10211z" fill="#3f3d56" transform="translate(-81 -86.98892)"/><path d="m201.65545 652.36432c23.68723 14.251 32.80992 42.55746 32.80992 42.55746s-29.28187 5.201-52.96909-9.05-32.80992-42.55746-32.80992-42.55746 29.28187-5.20102 52.96909 9.05z" fill="#795548" transform="translate(-81 -86.98892)"/><ellipse cx="855.88011" cy="346.42767" fill="#3f3d56" rx="86.30724" ry="19.17939"/><path d="m676.00031 579.65992h244.85721v2.3964h-244.85721z" fill="#3f3d56" transform="matrix(.36734452 -.93008494 .93008494 .36734452 -116.11694 1023.1009)"/><path d="m1071.73569 458.42952h2.3964v244.85721h-2.3964z" fill="#3f3d56" transform="matrix(.9301552 -.3671666 .3671666 .9301552 -219.33283 347.5264)"/><path d="m853.48269 379.99159h2.39742v227.75521h-2.39742z" fill="#3f3d56"/><path d="m873.34826 521.53953h2.3977v101.85523h-2.3977z" fill="#3f3d56" transform="matrix(.44721358 -.8944272 .8944272 .44721358 -109.59242 1011.68184)"/><path d="m945.88808 571.26829h101.85523v2.3977h-101.85523z" fill="#3f3d56" transform="matrix(.8944272 -.44721358 .44721358 .8944272 -231.77846 419.23757)"/><path d="m818.807 297.36282s-35.96135-37.16006-45.551-14.38454 35.96135 34.76264 35.96135 34.76264z" fill="#ffb8b8" transform="translate(-81 -86.98892)"/><path d="m896.72327 362.09325-46.74975 67.12785-49.14718 68.32656-14.38454 197.78742 49.14718 5.99356s-7.19227-53.942 5.99356-86.30724 13.18583-91.10208 13.18583-91.10208l85.10852-103.0892 47.94847 82.7111 51.54464 197.78742 43.15362-3.59613s-15.58325-91.10209-13.18583-100.69178-25.17294-89.90337-25.17294-89.90337l-21.57685-157.03123s-98.29436-14.38454-125.86473 11.98712z" fill="#2f2e41" transform="translate(-81 -86.98892)"/><circle cx="836.0749" cy="63.48814" fill="#ffb8b8" r="34.44769"/><g transform="translate(-81 -86.98892)"><path d="m939.87689 161.9084 25.173 26.37166 7.19227 40.75619-63.53172 10.78841 4.79485-37.16006s-1.19871-17.98068-5.99356-21.57681 32.36516-19.17939 32.36516-19.17939z" fill="#ffb8b8"/><path d="m907.51168 207.45944 5.84-6.59291 19.33291 17.38132 32.36522-29.96779 49.14719 165.42221s-31.16651-10.78841-61.1343 3.59613-69.52527 10.78841-69.52527 10.78841l1.19871-134.25571z" fill="#575a89"/><path d="m872.749 233.8311 40.16448-36.74378s13.77755 19.96182 7.784 58.32059-10.78841 113.87761-32.36522 134.2557-29.96776 27.57039-29.96776 27.57039l21.57681-86.30724s-16.78196-87.50597-7.19231-97.09566z" fill="#d0cde1"/><path d="m953.55278 176.23552s71.43264-7.13485 72.63135 1.25613-7.19227 104.28792-7.19227 104.28792 74.32012 99.49306 43.15362 118.67245c-14.534 8.944-27.09257-10.69907-44.95169-35.362-20.4378-28.224-45.43-63.64079-47.34911-80.913-3.59613-32.36524-16.2919-107.9415-16.2919-107.9415z" fill="#d0cde1"/><path d="m876.34518 267.395-5.99356 46.74975-52.74331-22.77552-16.782 34.76264 86.30724 32.36521s15.58328-82.71108-10.78837-91.10208z" fill="#d0cde1"/><path d="m791.23665 689.34153-34.76265 56.33947s-65.92914 35.96135-43.15362 45.55105 77.91626-10.78841 83.90982-22.77553 8.391-14.38454 10.7884-11.98711 32.36522-7.19227 33.56393-10.78841 0-44.35233-10.78841-49.14717-39.55747-7.1923-39.55747-7.1923z" fill="#2f2e41"/><path d="m1040.56867 695.33508 7.19227 44.35234 8.391 31.1665s5.99356 45.551 34.76264 41.95491c14.38454-1.79807 19.47906-11.98712 20.97745-21.72665a43.49631 43.49631 0 0 0 -4.80395-26.9441l-16.1735-30.44422-14.38458-40.7562z" fill="#2f2e41"/><path d="m882.6578 156.78069s-4.68107-5.05495-4.20728-11.38315a36.08331 36.08331 0 0 0 -.68309-10.7574s1.4651-10.3576 3.62841-16.36129.33963-8.093 9.63892-11.37068 3.37922-15.13042 30.79632-5.683a7.50039 7.50039 0 0 0 8.15737 1.66907c5.06176-1.85377 8.11215 5.10016 8.11215 5.10016s3.15728-2.59039 4.92893.10274 10.3401-3.4451 13.4821 16.14745-7.6444 37.06447-7.6444 37.06447-1.51347-31.35274-19.31924-31.92112-37.94176-7.313-40.43923 5.88966a96.36271 96.36271 0 0 1 -6.45096 21.50309z" fill="#2f2e41"/><path d="m1007.35707 337.01745s-43.24347 28.35649-22.66981 42.0463 40.88857-28.806 40.88857-28.806z" fill="#ffb8b8"/><path d="m1017.79315 177.49165s10.78841-5.99355 14.38454 5.99356 40.7562 104.28791 40.7562 104.28791l-46.74976 71.9227-33.56392-23.97423 40.75619-47.94847-27.5704-33.56392z" fill="#d0cde1"/><path d="m793.03472 198.48562h-1.25485v-34.37621a19.896 19.896 0 0 0 -19.89608-19.896h-72.8306a19.896 19.896 0 0 0 -19.89608 19.896v188.59059a19.896 19.896 0 0 0 19.89608 19.896h72.8306a19.896 19.896 0 0 0 19.89608-19.896v-129.74481h1.25485z" fill="#3f3d56"/><path d="m772.216 149.86019h-9.50681a7.05905 7.05905 0 0 1 -6.53572 9.72509h-41.72371a7.05907 7.05907 0 0 1 -6.53573-9.72509h-8.87938a14.85813 14.85813 0 0 0 -14.85814 14.85811v188.3139a14.85813 14.85813 0 0 0 14.85814 14.85812h73.18135a14.85813 14.85813 0 0 0 14.85814-14.85812v-188.3139a14.85813 14.85813 0 0 0 -14.85814-14.85811z" fill="#795548"/></g><path d="m654.393 154.754 15.635 27.081 15.635 27.081h-31.27-31.271l15.635-27.081z" fill="#3f3d56"/><path d="m654.319 174.36 7.093 12.285 7.092 12.285h-14.185-14.185l7.093-12.285z" fill="#d0cde1"/><path d="m654.319 134.413 7.093 12.285 7.092 12.284h-14.185-14.185l7.093-12.284z" fill="#d0cde1"/><path d="m348.721 250.708 103.141 178.646 103.141 178.646h-206.282-206.282l103.141-178.646z" fill="#3f3d56"/><path d="m348.236 380.04 46.789 81.04 46.788 81.04h-93.577-93.576l46.788-81.04z" fill="#d0cde1"/><path d="m348.236 116.52 46.789 81.039 46.788 81.04h-93.577-93.576l46.788-81.04z" fill="#d0cde1"/><path d="m0 606.54809h672.47723v2.39742h-672.47723z" fill="#3f3d56"/><path d="m288.38882 233.94465c-4.5654-5.23617-8.87562-13.68349-11.39947-20.49165-2.52619 6.80816-6.8364 15.25548-11.4018 20.49165l10.20309-3.69052v53.92287h2.39743v-53.92279z" fill="#3f3d56" transform="translate(-81 -86.98892)"/><path d="m617.43517 413.152c-4.56541-5.23617-8.87562-13.68348-11.39947-20.49165-2.52619 6.80817-6.8364 15.25548-11.40181 20.49165l10.2031-3.69051v53.92285h2.39742v-53.92274z" fill="#3f3d56" transform="translate(-81 -86.98892)"/><path d="m514.346 107.48057c-4.56541-5.23617-8.87562-13.68348-11.39947-20.49165-2.52619 6.80817-6.8364 15.25548-11.40181 20.49165l10.2031-3.69051v53.92285h2.39742v-53.92278z" fill="#3f3d56" transform="translate(-81 -86.98892)"/></svg>